<svg width="42" height="42" viewBox="0 0 42 42" fill="none" xmlns="http://www.w3.org/2000/svg">
<path d="M21 41.5C32.3218 41.5 41.5 32.3218 41.5 21C41.5 9.67816 32.3218 0.5 21 0.5C9.67816 0.5 0.5 9.67816 0.5 21C0.5 32.3218 9.67816 41.5 21 41.5Z" stroke="white"/>
<path d="M24.6207 12.5623L29.4315 17.3111C30.1895 18.0705 30.1895 19.2817 29.4315 20.0411L20.5 28.8753C18.9839 30.3749 16.5251 30.3749 14.9992 28.8753L11.5685 25.482C10.8105 24.7226 10.8105 23.5113 11.5685 22.7519L21.8703 12.5623C22.6381 11.8126 23.8627 11.8126 24.6207 12.5623ZM12.9389 24.117L16.3793 27.5103C17.1373 28.2697 18.3619 28.2697 19.1297 27.5103L22.5604 24.117L17.7496 19.3586L12.9389 24.117Z" fill="white"/>
</svg>
